<svg xmlns="http://www.w3.org/2000/svg" width="100" height="100" viewBox="0 0 100 100" version="1.1">
	<path d="M 30 72.918 C 30 73.423, 29.731 74.538, 29.402 75.395 C 28.823 76.902, 29.354 77.249, 36.500 80.027 C 40.597 81.619, 53.321 83.184, 64.975 83.528 C 71.589 83.723, 77 83.713, 77 83.506 C 77 83.299, 76.561 81.976, 76.025 80.565 C 75.060 78.027, 74.932 77.999, 63.775 77.934 C 49.003 77.848, 35.128 75.896, 33.505 73.675 C 32.191 71.879, 30 71.406, 30 72.918 M 27.119 82.088 C 25.552 86.584, 25.671 87, 28.532 87 C 29.925 87, 32.737 87.715, 34.782 88.588 C 41.588 91.496, 49.429 93.111, 56 92.958 C 59.575 92.875, 64.862 93.138, 67.750 93.543 C 71.076 94.009, 73 93.912, 73 93.278 C 73 92.728, 74.125 92.492, 75.500 92.755 C 78.139 93.260, 78.489 92.426, 77.379 88.285 C 76.857 86.339, 76.160 86.085, 71.642 86.197 C 61.568 86.448, 46.437 85.321, 42.500 84.028 C 38.783 82.806, 31.992 80.376, 29.369 79.329 C 28.747 79.081, 27.735 80.322, 27.119 82.088" stroke="none" fill="black" fill-rule="evenodd"/>
</svg>