<svg xmlns="http://www.w3.org/2000/svg" width="100" height="100" viewBox="0 0 100 100" version="1.1">
	<path d="M 43 72.471 C 43 76.757, 42.539 80.167, 41.906 80.558 C 41.236 80.972, 41.040 82.833, 41.401 85.367 C 41.724 87.640, 42.272 91.862, 42.618 94.750 L 43.248 100 52.124 100 L 61 100 61 95.200 C 61 92.560, 61.501 89.899, 62.113 89.287 C 62.815 88.585, 62.976 86.570, 62.549 83.837 C 62.177 81.452, 61.642 76.350, 61.360 72.500 L 60.849 65.500 51.924 65.280 L 43 65.059 43 72.471 M 61.252 84.500 C 61.263 86.700, 61.468 87.482, 61.707 86.238 C 61.946 84.994, 61.937 83.194, 61.687 82.238 C 61.437 81.282, 61.241 82.300, 61.252 84.500 M 42.195 84.500 C 42.215 86.150, 42.439 86.704, 42.693 85.731 C 42.947 84.758, 42.930 83.408, 42.656 82.731 C 42.382 82.054, 42.175 82.850, 42.195 84.500" stroke="none" fill="black" fill-rule="evenodd"/>
</svg>