<svg xmlns="http://www.w3.org/2000/svg" width="100" height="100" viewBox="0 0 100 100" version="1.1">
	<path d="M 39 62.823 C 41.800 64.616, 52.320 66.215, 57.122 65.578 C 59.752 65.229, 63.388 64.257, 65.202 63.417 C 67.477 62.364, 67.724 62.084, 66 62.513 C 64.625 62.856, 61.754 63.571, 59.621 64.102 C 56.023 64.998, 47.323 64.278, 40 62.477 C 38.183 62.030, 37.910 62.125, 39 62.823 M 34.264 67.516 C 30.671 71.165, 26.515 81.600, 25.508 89.500 C 25.158 92.250, 24.640 95.737, 24.356 97.250 C 23.995 99.180, 24.256 100, 25.234 100 C 26.603 100, 28.915 93.029, 32.601 77.788 C 33.494 74.096, 34.885 70.271, 35.694 69.288 C 37.083 67.598, 37.125 67.609, 36.454 69.500 C 35.800 71.343, 34.283 76.701, 30.365 91 C 29.536 94.025, 28.635 97.287, 28.362 98.250 C 28.068 99.287, 28.402 99.992, 29.183 99.981 C 30.529 99.962, 34.662 88.109, 37.527 76.054 C 38.885 70.340, 40 67.330, 40 69.378 C 40 71.255, 34.955 90.173, 33.571 93.485 C 30.734 100.275, 29.994 100, 51.131 100 L 70.262 100 69.691 96.750 C 68.146 87.959, 64.959 74.839, 63.551 71.469 C 62.684 69.392, 62.178 67.488, 62.428 67.238 C 63.690 65.977, 71 92.420, 71 98.243 C 71 99.346, 71.761 100, 73.045 100 C 74.858 100, 75.017 99.573, 74.441 96.250 C 73.290 89.612, 69.286 76.480, 67.112 72.220 C 64.467 67.035, 64.391 64.250, 67.024 69 C 69.329 73.158, 74.593 89.732, 75.521 95.750 C 75.881 98.088, 76.586 100, 77.088 100 C 79.752 100, 77.129 81.994, 73.409 74.749 C 71.927 71.862, 70.056 68.233, 69.251 66.684 C 68.197 64.655, 67.328 64.066, 66.144 64.578 C 59.602 67.405, 52.099 67.430, 39.500 64.669 C 38.182 64.380, 36.396 65.351, 34.264 67.516 M 50 71.071 C 50 71.661, 49.325 72.818, 48.500 73.643 C 47.675 74.468, 47 76.461, 47 78.071 C 47 80.821, 47.244 81, 51 81 C 54.756 81, 55 80.821, 55 78.071 C 55 76.461, 54.325 74.468, 53.500 73.643 C 52.675 72.818, 52 71.661, 52 71.071 C 52 70.482, 51.550 70, 51 70 C 50.450 70, 50 70.482, 50 71.071 M 40.180 78.250 C 40.409 79.861, 41.281 80.590, 43.250 80.816 C 46.402 81.179, 46.917 79.416, 44.250 77.392 C 41.546 75.339, 39.819 75.703, 40.180 78.250 M 58.655 77.829 C 56.242 80.495, 56.601 81.165, 60.250 80.813 C 62.741 80.573, 63.575 79.975, 63.820 78.250 C 64.223 75.412, 61.074 75.156, 58.655 77.829 M 46.750 82.737 C 49.638 82.939, 54.362 82.939, 57.250 82.737 C 60.138 82.535, 57.775 82.370, 52 82.370 C 46.225 82.370, 43.862 82.535, 46.750 82.737 M 47.250 84.735 C 49.862 84.941, 54.138 84.941, 56.750 84.735 C 59.362 84.529, 57.225 84.360, 52 84.360 C 46.775 84.360, 44.638 84.529, 47.250 84.735 M 44 86.387 C 44 86.599, 45.350 86.971, 47 87.213 C 48.650 87.455, 50 87.282, 50 86.827 C 50 86.372, 48.650 86, 47 86 C 45.350 86, 44 86.174, 44 86.387 M 53 86.827 C 53 87.282, 54.350 87.455, 56 87.213 C 57.650 86.971, 59 86.599, 59 86.387 C 59 86.174, 57.650 86, 56 86 C 54.350 86, 53 86.372, 53 86.827 M 40.382 91.552 C 40.709 92.406, 40.583 92.860, 40.102 92.563 C 39.620 92.265, 38.745 92.602, 38.157 93.311 C 37.321 94.318, 37.801 94.600, 40.355 94.600 C 43.404 94.600, 43.552 94.446, 42.562 92.308 C 41.385 89.766, 39.437 89.091, 40.382 91.552 M 46 92.500 C 46 95.292, 48.423 95.947, 49.393 93.418 C 50.407 90.775, 50.091 90, 48 90 C 46.533 90, 46 90.667, 46 92.500 M 56.500 91 C 56.840 91.550, 56.641 92, 56.059 92 C 55.477 92, 55 92.713, 55 93.583 C 55 94.454, 55.563 94.981, 56.250 94.755 C 57.841 94.231, 58.518 90, 57.011 90 C 56.390 90, 56.160 90.450, 56.500 91 M 47 92.500 C 47 93.325, 47.177 94, 47.393 94 C 47.609 94, 48.045 93.325, 48.362 92.500 C 48.678 91.675, 48.501 91, 47.969 91 C 47.436 91, 47 91.675, 47 92.500 M 52.079 92.583 C 52.127 93.748, 52.364 93.985, 52.683 93.188 C 52.972 92.466, 52.936 91.603, 52.604 91.271 C 52.272 90.939, 52.036 91.529, 52.079 92.583 M 61.032 92.321 C 60.997 94.316, 63.232 97, 64.929 97 C 65.518 97, 66 95.875, 66 94.500 C 66 93.125, 65.550 92, 65 92 C 64.450 92, 64 92.536, 64 93.191 C 64 93.846, 63.339 93.509, 62.532 92.441 C 61.154 90.619, 61.062 90.612, 61.032 92.321" stroke="none" fill="black" fill-rule="evenodd"/>
</svg>